<?xml version="1.0" ?><!DOCTYPE svg  PUBLIC '-//W3C//DTD SVG 1.1//EN'  'http://www.w3.org/Graphics/SVG/1.1/DTD/svg11.dtd'><svg enable-background="new -0.098 -12.684 141.732 141.732" height="141.732px" id="Livello_1" version="1.1" viewBox="-0.098 -12.684 141.732 141.732" width="141.732px" xml:space="preserve" xmlns="http://www.w3.org/2000/svg" xmlns:xlink="http://www.w3.org/1999/xlink"><g id="Livello_117"><path d="M107.668,62.87l-4.015-4.126V30.456h-0.264c0.701-2.799-0.012-5.894-2.143-8.085L81.897,2.473   c-3.205-3.297-8.403-3.297-11.61,0c-3.204,3.298-3.206,8.643,0,11.938L87.306,31.91v18.998l-0.367,0.377   c-1.319-5.396-6.069-9.393-11.729-9.393c-6.682,0-12.098,5.565-12.098,12.438c0,4.049,1.884,7.644,4.797,9.912H52.841   c1.008,0.935,1.606,2.085,1.606,3.334c0,3.091,3.656,5.601,8.167,5.601c4.512,0,8.167-2.51,8.167-5.601h0.04   c0.148-3.003,3.737-5.407,8.153-5.407c4.512,0,8.168,2.51,8.168,5.603c0,3.091,3.656,5.597,8.168,5.597   c4.51,0,8.166-2.506,8.166-5.597h-0.022C103.451,65.66,105.151,63.824,107.668,62.87 M141.535,70.004h0.002v-5.263   c-1.509,0.369-2.802,1.038-3.752,1.896c-1.427,0.907-2.317,2.154-2.343,3.539h-0.004c0,2.823-3.619,5.114-8.082,5.114   c-1.143,0-2.225-0.15-3.207-0.423c-2.586-0.938-4.364-2.781-4.364-4.926c0-3.092-3.656-5.599-8.168-5.599   c-3.397,0-6.31,1.426-7.539,3.447c-0.599,0.714-0.968,1.52-0.968,2.38h0.025c0,2.826-3.619,5.117-8.082,5.117   c-2.15,0-4.092-0.54-5.539-1.403c-1.467-1.015-2.373-2.403-2.373-3.942c0-3.092-3.656-5.599-8.168-5.599   c-4.416,0-8.003,2.401-8.155,5.403h-0.04c0,1.145-0.504,2.199-1.358,3.084c-1.449,1.375-3.918,2.282-6.725,2.282   c-4.463,0-8.082-2.291-8.082-5.117c0-0.503-0.15-0.978-0.363-1.437c-0.795-2.521-4.059-4.41-7.974-4.41   c-4.51,0-8.167,2.507-8.167,5.598h0.027c0,1.903-1.394,3.579-3.51,4.59c-1.234,0.484-2.677,0.776-4.234,0.776   c-4.463,0-8.082-2.291-8.082-5.117c0-0.281-0.062-0.556-0.131-0.827c1.007,2.312,4.093,4.005,7.789,4.005   c4.511,0,8.168-2.509,8.168-5.6H38.11c0-1.249,0.598-2.4,1.607-3.334H27.102h-0.001c-2.105,0-4.025,0.816-5.479,2.156   c0.119,0.38,0.183,0.771,0.183,1.178c0,0.336,0.062,0.661,0.145,0.981c-0.271-0.583-0.712-1.117-1.268-1.599   c-1.412-1.673-4.021-2.811-7.043-2.811c-4.512,0-8.168,2.507-8.168,5.598c0,2.443-2.287,4.519-5.471,5.278v5.691   c2.53-0.424,4.799-1.43,6.607-2.829c2.992-1.876,4.904-4.714,4.904-7.895h0.026c0-0.978,1.206-1.771,2.694-1.771   c0.556,0,1.072,0.108,1.503,0.302c0.385,0.334,0.625,0.756,0.625,1.221c0,6.187,6.089,11.196,13.599,11.196   c4.525,0,8.522-1.827,10.994-4.625c1.803-1.741,2.889-3.937,2.889-6.322c0-0.978,1.205-1.771,2.693-1.771   c0.971,0,1.812,0.34,2.287,0.846c0.111,0.212,0.182,0.438,0.182,0.677c0,6.187,6.088,11.196,13.599,11.196   c7.336,0,13.301-4.787,13.575-10.772h0.02c0-0.078,0.021-0.151,0.035-0.229h0.022c0-0.064,0.019-0.124,0.024-0.188   c0.287-0.772,1.343-1.354,2.611-1.354c1.486,0,2.691,0.793,2.691,1.771c0,1.756,0.582,3.405,1.604,4.852   c2.25,3.627,6.819,6.115,12.106,6.115c7.511,0,13.601-5.016,13.601-11.195c0-0.385,0.162-0.742,0.436-1.043   c0.482-0.309,1.139-0.497,1.861-0.497c1.488,0,2.693,0.793,2.693,1.771c0,2.828,1.508,5.392,3.946,7.24   c2.487,2.281,6.088,3.727,10.104,3.727C135.424,81.139,141.494,76.16,141.535,70.004 M141.535,87.618h0.002v-5.264   c-1.509,0.37-2.802,1.038-3.752,1.895c-1.427,0.91-2.317,2.157-2.343,3.538h-0.004c0,2.827-3.619,5.119-8.082,5.119   c-1.141,0-2.221-0.153-3.203-0.422c-2.588-0.94-4.368-2.782-4.368-4.929c0-3.095-3.656-5.601-8.168-5.601   c-3.397,0-6.31,1.425-7.539,3.45c-0.599,0.714-0.968,1.515-0.968,2.379h0.025c0,2.827-3.619,5.119-8.082,5.119   c-2.15,0-4.092-0.54-5.539-1.407c-1.467-1.012-2.373-2.401-2.373-3.94c0-3.095-3.656-5.601-8.168-5.601   c-4.416,0-8.003,2.404-8.155,5.407h-0.04c0,1.14-0.504,2.198-1.358,3.083c-1.449,1.375-3.918,2.283-6.725,2.283   c-4.463,0-8.082-2.292-8.082-5.118c0-0.503-0.15-0.979-0.363-1.438c-0.797-2.52-4.06-4.405-7.974-4.405   c-4.51,0-8.167,2.507-8.167,5.599h0.027c0,1.902-1.393,3.578-3.51,4.59c-1.234,0.483-2.676,0.776-4.234,0.776   c-4.463,0-8.082-2.292-8.082-5.118c0-1.165-0.639-2.227-1.672-3.086c-1.422-1.646-4.012-2.761-7.004-2.761   c-4.512,0-8.168,2.507-8.168,5.599c0,2.443-2.287,4.514-5.471,5.277v5.689c2.53-0.421,4.799-1.428,6.606-2.83   c2.991-1.877,4.905-4.712,4.905-7.892h0.026c0-0.979,1.206-1.771,2.694-1.771c0.556,0,1.072,0.11,1.503,0.304   c0.385,0.334,0.625,0.756,0.625,1.222c0,6.183,6.089,11.195,13.599,11.195c4.525,0,8.522-1.826,10.994-4.625   c1.803-1.741,2.889-3.937,2.889-6.322c0-0.979,1.205-1.771,2.693-1.771c0.971,0,1.812,0.34,2.287,0.847   C48.929,86.899,49,87.125,49,87.365c0,6.183,6.088,11.195,13.599,11.195c7.336,0,13.3-4.787,13.574-10.773h0.021   c0-0.079,0.021-0.153,0.035-0.229h0.021c0-0.063,0.021-0.123,0.022-0.188c0.287-0.773,1.345-1.353,2.611-1.353   c1.488,0,2.693,0.792,2.693,1.77c0,1.756,0.584,3.407,1.605,4.853c2.25,3.627,6.819,6.112,12.104,6.112   c7.512,0,13.603-5.013,13.603-11.193c0-0.388,0.162-0.741,0.434-1.043c0.484-0.309,1.139-0.495,1.863-0.495   c1.487,0,2.69,0.792,2.69,1.77c0,2.829,1.511,5.392,3.947,7.241c2.485,2.281,6.088,3.724,10.104,3.724   C135.424,98.752,141.494,93.773,141.535,87.618 M141.537,105.231v-5.264c-1.509,0.366-2.804,1.034-3.752,1.896   c-1.429,0.91-2.317,2.156-2.343,3.538h-0.004c0,2.827-3.619,5.118-8.082,5.118c-1.141,0-2.221-0.153-3.205-0.424   c-2.586-0.939-4.366-2.78-4.366-4.93c0-3.092-3.656-5.598-8.168-5.598c-3.397,0-6.31,1.425-7.539,3.45   c-0.599,0.714-0.968,1.516-0.968,2.38h0.025c0,2.827-3.619,5.118-8.082,5.118c-2.15,0-4.092-0.54-5.539-1.407   c-1.467-1.012-2.373-2.404-2.373-3.943c0-3.092-3.656-5.598-8.168-5.598c-4.416,0-8.003,2.405-8.155,5.406h-0.04   c0,1.141-0.504,2.197-1.358,3.085c-1.449,1.375-3.918,2.279-6.725,2.279c-4.463,0-8.082-2.29-8.082-5.115   c0-0.502-0.148-0.979-0.361-1.438c-0.797-2.52-4.061-4.41-7.976-4.41c-4.51,0-8.167,2.509-8.167,5.601h0.027   c0,1.9-1.394,3.578-3.51,4.591c-1.234,0.48-2.676,0.773-4.234,0.773c-4.463,0-8.082-2.289-8.082-5.115   c0-1.165-0.639-2.229-1.672-3.087c-1.422-1.646-4.012-2.763-7.004-2.763c-4.512,0-8.168,2.509-8.168,5.601   c0,2.439-2.287,4.515-5.471,5.274v5.693c2.53-0.421,4.799-1.428,6.606-2.83c2.991-1.877,4.905-4.712,4.905-7.892h0.026   c0-0.979,1.206-1.771,2.694-1.771c0.557,0,1.074,0.111,1.503,0.301c0.385,0.334,0.625,0.759,0.625,1.225   c0,6.184,6.089,11.193,13.599,11.193c4.524,0,8.521-1.824,10.993-4.624c1.804-1.738,2.89-3.935,2.89-6.32   c0-0.979,1.205-1.771,2.693-1.771c0.971,0,1.812,0.34,2.288,0.846c0.11,0.214,0.181,0.438,0.181,0.68   c0,6.184,6.088,11.193,13.599,11.193c7.336,0,13.299-4.784,13.574-10.771h0.021c0-0.08,0.021-0.155,0.035-0.232h0.021   c0-0.062,0.02-0.124,0.023-0.186c0.287-0.775,1.344-1.354,2.61-1.354c1.488,0,2.693,0.793,2.693,1.771   c0,1.754,0.582,3.404,1.604,4.848c2.25,3.628,6.818,6.116,12.105,6.116c7.512,0,13.602-5.012,13.602-11.196   c0-0.385,0.162-0.739,0.434-1.043c0.484-0.306,1.14-0.496,1.863-0.496c1.488,0,2.691,0.793,2.691,1.771   c0,2.828,1.51,5.388,3.947,7.241c2.486,2.276,6.088,3.723,10.104,3.723c7.484,0,13.555-4.979,13.596-11.134L141.537,105.231   L141.537,105.231z"/></g><g id="Livello_1_1_"/></svg>